# xmcd
#
# Track frame offsets: 
#        150
#        17225
#        28854
#        40959
#        60843
#        83716
#        101343
#        114781
#        129796
#        168199
#        187000
#        202155
#        228347
#        244449
#        257376
#        270575
#        286473
#        304464
#        327396
#
# Disc length: 4620 seconds
#
# Revision: 2
# Processed by: cddbd v1.5.2PL0 Copyright (c) Steve Scherf et al.
# Submitted via: ExactAudioCopyFreeDBPlugin 1.0
#
DISCID=03120a13
DTITLE=Various Artist - 僕たちの洋楽ヒット Best of 70's
DYEAR=2003
DGENRE=Rock
TTITLE0=Three Dog Night - An Old Fashioned Love Song
TTITLE1=Bread - If
TTITLE2=Hamilton,Joe Frank and Reynolds - Don't Pull Your Love
TTITLE3=T Rex - Get It On
TTITLE4=James Brown - Sex Machine
TTITLE5=Chicago - Saturday In The Park
TTITLE6=Chase - Get It On
TTITLE7=Albert Hammond - It Never Rains In Southern California
TTITLE8=Don McLean - American Pie
TTITLE9=America - A Horse With No Name
TTITLE10=Nilsson - Without You
TTITLE11=MFSB - TSOP (The Sound Of Philadelphia)
TTITLE12=Chic - Le Freak
TTITLE13=Suzi Quatro - The Wild One
TTITLE14=Bay City Rollers - Saturday Night
TTITLE15=Olivia Newton-John - Have You Never Been Mellow
TTITLE16=10cc - I'm Not In Love
TTITLE17=Santana - Europa (Earth's Cry Heaven's Smile)
TTITLE18=Boz Scaggs - We're All Alone
EXTD=YEAR: 2003
EXTT0=
EXTT1=
EXTT2=
EXTT3=
EXTT4=
EXTT5=
EXTT6=
EXTT7=
EXTT8=
EXTT9=
EXTT10=
EXTT11=
EXTT12=
EXTT13=
EXTT14=
EXTT15=
EXTT16=
EXTT17=
EXTT18=
PLAYORDER=
